<svg width="25" height="24" viewBox="0 0 25 24" fill="none" xmlns="http://www.w3.org/2000/svg">
<path d="M12.52 20.5299C10.19 20.5299 7.85999 20.1599 5.64999 19.4199C4.80999 19.1299 4.16999 18.5399 3.88999 17.7699C3.59999 16.9999 3.69999 16.1499 4.15999 15.3899L5.30999 13.4799C5.54999 13.0799 5.76999 12.2799 5.76999 11.8099V8.91992C5.76999 5.19992 8.79999 2.16992 12.52 2.16992C16.24 2.16992 19.27 5.19992 19.27 8.91992V11.8099C19.27 12.2699 19.49 13.0799 19.73 13.4899L20.87 15.3899C21.3 16.1099 21.38 16.9799 21.09 17.7699C20.8 18.5599 20.17 19.1599 19.38 19.4199C17.18 20.1599 14.85 20.5299 12.52 20.5299ZM12.52 3.66992C9.62999 3.66992 7.26999 6.01992 7.26999 8.91992V11.8099C7.26999 12.5399 6.96999 13.6199 6.59999 14.2499L5.44999 16.1599C5.22999 16.5299 5.16999 16.9199 5.29999 17.2499C5.41999 17.5899 5.71999 17.8499 6.12999 17.9899C10.31 19.3899 14.74 19.3899 18.92 17.9899C19.28 17.8699 19.56 17.5999 19.69 17.2399C19.82 16.8799 19.79 16.4899 19.59 16.1599L18.44 14.2499C18.06 13.5999 17.77 12.5299 17.77 11.7999V8.91992C17.77 6.01992 15.42 3.66992 12.52 3.66992Z" fill="#292D32"/>
<path d="M14.38 3.94018C14.31 3.94018 14.24 3.93018 14.17 3.91018C13.88 3.83018 13.6 3.77018 13.33 3.73018C12.48 3.62018 11.66 3.68018 10.89 3.91018C10.61 4.00018 10.31 3.91018 10.12 3.70018C9.92999 3.49018 9.86999 3.19018 9.97999 2.92018C10.39 1.87018 11.39 1.18018 12.53 1.18018C13.67 1.18018 14.67 1.86018 15.08 2.92018C15.18 3.19018 15.13 3.49018 14.94 3.70018C14.79 3.86018 14.58 3.94018 14.38 3.94018Z" fill="#292D32"/>
<path d="M12.52 22.8101C11.53 22.8101 10.57 22.4101 9.86999 21.7101C9.16999 21.0101 8.76999 20.0501 8.76999 19.0601H10.27C10.27 19.6501 10.51 20.2301 10.93 20.6501C11.35 21.0701 11.93 21.3101 12.52 21.3101C13.76 21.3101 14.77 20.3001 14.77 19.0601H16.27C16.27 21.1301 14.59 22.8101 12.52 22.8101Z" fill="#292D32"/>
</svg>
